<svg width="32" height="32" viewBox="0 0 32 32" fill="none" xmlns="http://www.w3.org/2000/svg">
<path opacity="0.4" d="M14.6665 2.66675H11.9998C5.33317 2.66675 2.6665 5.33341 2.6665 12.0001V20.0001C2.6665 26.6667 5.33317 29.3334 11.9998 29.3334H19.9998C26.6665 29.3334 29.3332 26.6667 29.3332 20.0001V17.3334" stroke="#0073C9" stroke-width="2" stroke-linecap="round" stroke-linejoin="round"/>
<path d="M21.3865 4.02627L10.8798 14.533C10.4798 14.933 10.0798 15.7197 9.99984 16.293L9.42651 20.3063C9.21317 21.7597 10.2398 22.773 11.6932 22.573L15.7065 21.9997C16.2665 21.9197 17.0532 21.5197 17.4665 21.1197L27.9732 10.6129C29.7865 8.79961 30.6399 6.69294 27.9732 4.02627C25.3065 1.3596 23.1999 2.21294 21.3865 4.02627Z" stroke="#0073C9" stroke-width="2" stroke-miterlimit="10" stroke-linecap="round" stroke-linejoin="round"/>
<path opacity="0.4" d="M19.8804 5.5332C20.7737 8.71987 23.267 11.2132 26.467 12.1199" stroke="#0073C9" stroke-width="2" stroke-miterlimit="10" stroke-linecap="round" stroke-linejoin="round"/>
</svg>
