<svg width="32" height="32" viewBox="0 0 32 32" fill="none" xmlns="http://www.w3.org/2000/svg">
<path d="M14.4818 4.48443C15.1572 3.27256 15.4951 2.66663 16 2.66663C16.505 2.66663 16.8428 3.27256 17.5183 4.48443L17.6931 4.79795C17.8851 5.14232 17.9811 5.31451 18.1307 5.42812C18.2804 5.54173 18.4668 5.58391 18.8395 5.66825L19.179 5.74504C20.4908 6.04185 21.1467 6.19027 21.3027 6.69208C21.4588 7.19391 21.0116 7.7168 20.1174 8.76259L19.8859 9.03315C19.6318 9.33032 19.5047 9.47892 19.4476 9.66275C19.3904 9.84657 19.4096 10.0448 19.448 10.4413L19.483 10.8023C19.6182 12.1976 19.6859 12.8953 19.2772 13.2054C18.8687 13.5156 18.2546 13.2328 17.0263 12.6673L16.7086 12.5209C16.3595 12.3602 16.185 12.2799 16 12.2799C15.8151 12.2799 15.6406 12.3602 15.2915 12.5209L14.9738 12.6673C13.7455 13.2328 13.1313 13.5156 12.7228 13.2054C12.3142 12.8953 12.3818 12.1976 12.517 10.8023L12.552 10.4413C12.5904 10.0448 12.6096 9.84657 12.5525 9.66275C12.4953 9.47892 12.3682 9.33032 12.1141 9.03315L11.8827 8.76259C10.9884 7.7168 10.5413 7.19391 10.6973 6.69208C10.8534 6.19027 11.5093 6.04185 12.8211 5.74504L13.1605 5.66825C13.5332 5.58391 13.7196 5.54173 13.8694 5.42812C14.019 5.31451 14.115 5.14232 14.307 4.79795L14.4818 4.48443Z" stroke="#0073C9" stroke-width="2"/>
<path d="M25.9074 10.2423C26.2453 9.63635 26.4141 9.33337 26.6666 9.33337C26.9192 9.33337 27.088 9.63633 27.4258 10.2423L27.5132 10.399C27.6092 10.5712 27.6572 10.6573 27.732 10.7141C27.8068 10.7709 27.9 10.792 28.0864 10.8342L28.2561 10.8726C28.912 11.021 29.24 11.0952 29.318 11.3461C29.396 11.597 29.1725 11.8585 28.7253 12.3813L28.6096 12.5166C28.4825 12.6652 28.419 12.7395 28.3904 12.8314C28.3618 12.9233 28.3714 13.0225 28.3906 13.2207L28.4081 13.4012C28.4757 14.0988 28.5096 14.4476 28.3053 14.6027C28.101 14.7578 27.794 14.6164 27.1798 14.3336L27.0209 14.2606C26.8464 14.1802 26.7592 14.14 26.6666 14.14C26.5741 14.14 26.4869 14.1802 26.3124 14.2606L26.1534 14.3336C25.5393 14.6164 25.2322 14.7578 25.028 14.6027C24.8237 14.4476 24.8576 14.0988 24.9252 13.4012L24.9426 13.2207C24.9618 13.0225 24.9714 12.9233 24.9429 12.8314C24.9142 12.7395 24.8508 12.6652 24.7237 12.5166L24.608 12.3814C24.1608 11.8585 23.9373 11.597 24.0153 11.3461C24.0933 11.0952 24.4213 11.021 25.0772 10.8726L25.2469 10.8342C25.4333 10.792 25.5265 10.7709 25.6013 10.7141C25.6761 10.6573 25.7241 10.5712 25.8201 10.399L25.9074 10.2423Z" stroke="#0073C9" stroke-width="2"/>
<path d="M4.5742 10.2423C4.91197 9.63635 5.08087 9.33337 5.33336 9.33337C5.58585 9.33337 5.75475 9.63633 6.09252 10.2423L6.17991 10.399C6.27589 10.5712 6.32388 10.6573 6.39871 10.7141C6.47353 10.7709 6.56673 10.792 6.75312 10.8342L6.92281 10.8726C7.57873 11.021 7.90669 11.0952 7.98472 11.3461C8.06275 11.597 7.83916 11.8585 7.392 12.3813L7.27632 12.5166C7.14924 12.6652 7.08571 12.7395 7.05713 12.8314C7.02855 12.9233 7.03815 13.0225 7.05736 13.2207L7.07485 13.4012C7.14245 14.0988 7.17627 14.4476 6.97199 14.6027C6.76771 14.7578 6.46065 14.6164 5.84652 14.3336L5.68763 14.2606C5.51311 14.1802 5.42585 14.14 5.33336 14.14C5.24087 14.14 5.15361 14.1802 4.97909 14.2606L4.8202 14.3336C4.20608 14.6164 3.89901 14.7578 3.69473 14.6027C3.49045 14.4476 3.52427 14.0988 3.59187 13.4012L3.60936 13.2207C3.62857 13.0225 3.63817 12.9233 3.60959 12.8314C3.58101 12.7395 3.51748 12.6652 3.3904 12.5166L3.27472 12.3814C2.82756 11.8585 2.60397 11.597 2.682 11.3461C2.76003 11.0952 3.08799 11.021 3.74391 10.8726L3.9136 10.8342C4.09999 10.792 4.19319 10.7709 4.26801 10.7141C4.34284 10.6573 4.39084 10.5712 4.48681 10.399L4.5742 10.2423Z" stroke="#0073C9" stroke-width="2"/>
<path opacity="0.5" d="M5.33331 28.5179H8.34655C9.69437 28.5179 11.0567 28.6583 12.3684 28.9286C14.6888 29.4066 17.1317 29.4644 19.4758 29.0851C20.6317 28.8979 21.768 28.6119 22.7966 28.1154C23.7252 27.6672 24.8625 27.0355 25.6265 26.3279C26.3894 25.6214 27.184 24.465 27.7478 23.561C28.2314 22.7859 27.9976 21.835 27.2326 21.2574C26.383 20.6159 25.1222 20.616 24.2728 21.2578L21.8632 23.0779C20.9293 23.7834 19.9093 24.4327 18.6941 24.6266C18.548 24.6499 18.3949 24.6711 18.2352 24.6896M18.2352 24.6896C18.187 24.6952 18.1384 24.7006 18.089 24.7056M18.2352 24.6896C18.4296 24.648 18.6225 24.528 18.8037 24.37C19.6613 23.6215 19.7154 22.36 18.9713 21.5242C18.7988 21.3303 18.5966 21.1686 18.3721 21.0346C14.6422 18.8099 8.83921 20.5043 5.33331 22.9906M18.2352 24.6896C18.1865 24.7 18.1377 24.7056 18.089 24.7056M18.089 24.7056C17.3912 24.7772 16.5749 24.7958 15.669 24.7102" stroke="#0073C9" stroke-width="2" stroke-linecap="round"/>
</svg>
