<svg width="32" height="32" viewBox="0 0 32 32" fill="none" xmlns="http://www.w3.org/2000/svg">
<path opacity="0.5" d="M16 7.33459L18.6667 10.0005" stroke="#0073C9" stroke-width="2" stroke-linecap="round"/>
<path d="M16 7.33418L15.2795 8.02764C15.468 8.22351 15.7282 8.33418 16 8.33418C16.2719 8.33418 16.532 8.22351 16.7206 8.02764L16 7.33418ZM12.5681 24.4292C10.5472 22.8361 8.33745 21.2804 6.58441 19.3064C4.86565 17.3709 3.66669 15.1127 3.66669 12.1828H1.66669C1.66669 15.7368 3.14735 18.4481 5.08898 20.6344C6.99633 22.7821 9.42771 24.5003 11.3299 25.9999L12.5681 24.4292ZM3.66669 12.1828C3.66669 9.31498 5.28718 6.91003 7.49917 5.89892C9.64811 4.91664 12.5356 5.17678 15.2795 8.02764L16.7206 6.64071C13.4647 3.25803 9.68547 2.70052 6.6677 4.07995C3.71297 5.43056 1.66669 8.56671 1.66669 12.1828H3.66669ZM11.3299 25.9999C12.0129 26.5383 12.7461 27.1124 13.4891 27.5465C14.2319 27.9805 15.0795 28.3333 16 28.3333V26.3333C15.5872 26.3333 15.1015 26.1724 14.4982 25.8197C13.8951 25.4673 13.2695 24.9821 12.5681 24.4292L11.3299 25.9999ZM20.6702 25.9999C22.5723 24.5003 25.0038 22.7821 26.9111 20.6344C28.8527 18.4481 30.3334 15.7368 30.3334 12.1828H28.3334C28.3334 15.1127 27.1344 17.3709 25.4156 19.3064C23.6626 21.2804 21.4528 22.8361 19.432 24.4292L20.6702 25.9999ZM30.3334 12.1828C30.3334 8.56671 28.2871 5.43056 25.3323 4.07995C22.3146 2.70052 18.5354 3.25803 15.2795 6.64071L16.7206 8.02764C19.4644 5.17678 22.3519 4.91664 24.5008 5.89892C26.7128 6.91003 28.3334 9.31498 28.3334 12.1828H30.3334ZM19.432 24.4292C18.7306 24.9821 18.105 25.4673 17.5019 25.8197C16.8986 26.1724 16.4128 26.3333 16 26.3333V28.3333C16.9206 28.3333 17.7682 27.9805 18.511 27.5465C19.254 27.1124 19.9871 26.5383 20.6702 25.9999L19.432 24.4292Z" fill="#0073C9"/>
</svg>
