<svg width="32" height="32" viewBox="0 0 32 32" fill="none" xmlns="http://www.w3.org/2000/svg">
<path opacity="0.5" d="M16 10.6666V16L19.3333 19.3333" stroke="#0073C9" stroke-width="2" stroke-linecap="round" stroke-linejoin="round"/>
<path d="M5.7837 9.1607L4.78371 9.16573C4.78647 9.71409 5.23031 10.1579 5.77867 10.1607L5.7837 9.1607ZM9.17274 10.1777C9.72502 10.1805 10.175 9.73506 10.1778 9.18278C10.1805 8.6305 9.73507 8.18054 9.18279 8.17777L9.17274 10.1777ZM6.76663 5.76161C6.76386 5.20933 6.3139 4.76387 5.76162 4.76665C5.20934 4.76942 4.76389 5.21938 4.76666 5.77166L6.76663 5.76161ZM5.10217 14.3799C5.17717 13.8327 4.79439 13.3284 4.24722 13.2534C3.70006 13.1784 3.19569 13.5611 3.12069 14.1083L5.10217 14.3799ZM25.1496 6.85037C20.056 1.75678 11.825 1.70519 6.7651 6.76509L8.17931 8.1793C12.4448 3.91382 19.4095 3.93861 23.7355 8.26458L25.1496 6.85037ZM6.85038 25.1496C11.944 30.2432 20.1751 30.2948 25.235 25.2349L23.8207 23.8207C19.5552 28.0861 12.5906 28.0615 8.26459 23.7355L6.85038 25.1496ZM25.235 25.2349C30.2948 20.1751 30.2432 11.944 25.1496 6.85037L23.7355 8.26458C28.0615 12.5906 28.0862 19.5552 23.8207 23.8207L25.235 25.2349ZM6.7651 6.76509L5.07659 8.45359L6.49081 9.86781L8.17931 8.1793L6.7651 6.76509ZM5.77867 10.1607L9.17274 10.1777L9.18279 8.17777L5.78873 8.16071L5.77867 10.1607ZM6.78369 9.15567L6.76663 5.76161L4.76666 5.77166L4.78371 9.16573L6.78369 9.15567ZM3.12069 14.1083C2.58545 18.0132 3.83191 22.1312 6.85038 25.1496L8.26459 23.7355C5.70382 21.1747 4.64886 17.6869 5.10217 14.3799L3.12069 14.1083Z" fill="#0073C9"/>
</svg>
