<svg width="32" height="32" viewBox="0 0 32 32" fill="none" xmlns="http://www.w3.org/2000/svg">
<g opacity="0.8">
<path opacity="0.4" d="M11.5619 19.106C11.5619 20.826 12.8819 22.2126 14.5219 22.2126H17.8686C19.2953 22.2126 20.4553 20.9993 20.4553 19.506C20.4553 17.8793 19.7486 17.306 18.6953 16.9326L13.3219 15.066C12.2685 14.6926 11.5619 14.1193 11.5619 12.4927C11.5619 10.9993 12.7219 9.78601 14.1486 9.78601H17.4952C19.1352 9.78601 20.4553 11.1727 20.4553 12.8927" stroke="#0073C9" stroke-width="2" stroke-linecap="round" stroke-linejoin="round"/>
<path opacity="0.4" d="M15.9992 8.00024V24.0002" stroke="#0073C9" stroke-width="2" stroke-linecap="round" stroke-linejoin="round"/>
</g>
<path d="M15.9993 29.3327C23.3631 29.3327 29.3327 23.3631 29.3327 15.9993C29.3327 8.63555 23.3631 2.66602 15.9993 2.66602C8.63555 2.66602 2.66602 8.63555 2.66602 15.9993C2.66602 23.3631 8.63555 29.3327 15.9993 29.3327Z" stroke="#0073C9" stroke-width="2" stroke-linecap="round" stroke-linejoin="round"/>
</svg>
