<svg width="32" height="32" viewBox="0 0 32 32" fill="none" xmlns="http://www.w3.org/2000/svg">
<path d="M2.66669 22.5333C2.66669 20.7875 2.66669 19.9145 3.05965 19.2733C3.27953 18.9145 3.58121 18.6128 3.94002 18.3929C4.58127 18 5.45419 18 7.20002 18H8.66669C11.1808 18 12.4379 18 13.219 18.7811C14 19.5621 14 20.8192 14 23.3333V24.8C14 26.5459 14 27.4188 13.6071 28.06C13.3872 28.4188 13.0855 28.7205 12.7267 28.9404C12.0854 29.3333 11.2125 29.3333 9.46669 29.3333C6.84794 29.3333 5.53857 29.3333 4.57669 28.7439C4.03847 28.4141 3.58595 27.9616 3.25613 27.4233C2.66669 26.4615 2.66669 25.1521 2.66669 22.5333Z" stroke="#0073C9" stroke-width="2"/>
<path d="M18 7.19996C18 5.45413 18 4.58121 18.3929 3.93996C18.6128 3.58115 18.9145 3.27947 19.2733 3.05959C19.9145 2.66663 20.7875 2.66663 22.5333 2.66663C25.1521 2.66663 26.4615 2.66663 27.4233 3.25607C27.9616 3.58589 28.4141 4.03841 28.7439 4.57663C29.3333 5.53851 29.3333 6.84788 29.3333 9.46662C29.3333 11.2125 29.3333 12.0854 28.9404 12.7266C28.7205 13.0854 28.4188 13.3872 28.06 13.607C27.4188 14 26.5459 14 24.8 14H23.3333C20.8192 14 19.5621 14 18.7811 13.2189C18 12.4379 18 11.1808 18 8.66663V7.19996Z" stroke="#0073C9" stroke-width="2"/>
<path opacity="0.5" d="M22 8.33329C22 7.64608 22 7.30248 22.1721 7.05987C22.2329 6.97425 22.3076 6.89951 22.3932 6.83877C22.6359 6.66663 22.9795 6.66663 23.6667 6.66663C24.3539 6.66663 24.6975 6.66663 24.9401 6.83877C25.0257 6.89951 25.1004 6.97425 25.1612 7.05987C25.3333 7.30248 25.3333 7.64608 25.3333 8.33329C25.3333 9.02051 25.3333 9.36411 25.1612 9.60672C25.1004 9.69233 25.0257 9.76708 24.9401 9.82781C24.6975 9.99996 24.3539 9.99996 23.6667 9.99996C22.9795 9.99996 22.6359 9.99996 22.3932 9.82781C22.3076 9.76708 22.2329 9.69233 22.1721 9.60672C22 9.36411 22 9.02051 22 8.33329Z" fill="#0073C9"/>
<path d="M25.3333 18H22.6667C20.794 18 19.8577 18 19.1852 18.4495C18.894 18.644 18.644 18.894 18.4495 19.1852C18 19.8577 18 20.794 18 22.6667" stroke="#0073C9" stroke-width="2"/>
<path opacity="0.5" d="M17 29.3334C17 29.8856 17.4477 30.3334 18 30.3334C18.5523 30.3334 19 29.8856 19 29.3334H17ZM17 25.3334V29.3334H19V25.3334H17Z" fill="#0073C9"/>
<path d="M22.6667 29.3334H25.3334C26.5759 29.3334 27.1971 29.3334 27.6872 29.1304C28.3406 28.8598 28.8598 28.3406 29.1304 27.6872C29.3334 27.1971 29.3334 26.5759 29.3334 25.3334" stroke="#0073C9" stroke-width="2" stroke-linejoin="round"/>
<path opacity="0.5" d="M30.3333 18C30.3333 17.4477 29.8856 17 29.3333 17C28.781 17 28.3333 17.4477 28.3333 18H30.3333ZM30.3333 22.6667V18H28.3333V22.6667H30.3333Z" fill="#0073C9"/>
<path d="M2.66669 9.46662C2.66669 6.84788 2.66669 5.53851 3.25613 4.57663C3.58595 4.03841 4.03847 3.58589 4.57669 3.25607C5.53857 2.66663 6.84794 2.66663 9.46669 2.66663C11.2125 2.66663 12.0854 2.66663 12.7267 3.05959C13.0855 3.27947 13.3872 3.58115 13.6071 3.93996C14 4.58121 14 5.45413 14 7.19996V8.66663C14 11.1808 14 12.4379 13.219 13.2189C12.4379 14 11.1808 14 8.66669 14H7.20002C5.45419 14 4.58127 14 3.94002 13.607C3.58121 13.3872 3.27953 13.0854 3.05965 12.7266C2.66669 12.0854 2.66669 11.2125 2.66669 9.46662Z" stroke="#0073C9" stroke-width="2"/>
<path opacity="0.5" d="M6.66669 8.33329C6.66669 7.64608 6.66669 7.30248 6.83883 7.05987C6.89957 6.97425 6.97431 6.89951 7.05993 6.83877C7.30254 6.66663 7.64614 6.66663 8.33335 6.66663C9.02057 6.66663 9.36417 6.66663 9.60678 6.83877C9.69239 6.89951 9.76714 6.97425 9.82787 7.05987C10 7.30248 10 7.64608 10 8.33329C10 9.02051 10 9.36411 9.82787 9.60672C9.76714 9.69233 9.69239 9.76708 9.60678 9.82781C9.36417 9.99996 9.02057 9.99996 8.33335 9.99996C7.64614 9.99996 7.30254 9.99996 7.05993 9.82781C6.97431 9.76708 6.89957 9.69233 6.83883 9.60672C6.66669 9.36411 6.66669 9.02051 6.66669 8.33329Z" fill="#0073C9"/>
<path opacity="0.5" d="M6.66669 23.6667C6.66669 22.9795 6.66669 22.6359 6.83883 22.3932C6.89957 22.3076 6.97431 22.2329 7.05993 22.1721C7.30254 22 7.64614 22 8.33335 22C9.02057 22 9.36417 22 9.60678 22.1721C9.69239 22.2329 9.76714 22.3076 9.82787 22.3932C10 22.6359 10 22.9795 10 23.6667C10 24.3539 10 24.6975 9.82787 24.9401C9.76714 25.0257 9.69239 25.1004 9.60678 25.1612C9.36417 25.3333 9.02057 25.3333 8.33335 25.3333C7.64614 25.3333 7.30254 25.3333 7.05993 25.1612C6.97431 25.1004 6.89957 25.0257 6.83883 24.9401C6.66669 24.6975 6.66669 24.3539 6.66669 23.6667Z" fill="#0073C9"/>
<path opacity="0.5" d="M21.3333 23.6667C21.3333 22.7304 21.3333 22.2623 21.558 21.9259C21.6553 21.7803 21.7802 21.6554 21.9258 21.558C22.2622 21.3334 22.7304 21.3334 23.6666 21.3334C24.6029 21.3334 25.071 21.3334 25.4074 21.558C25.553 21.6554 25.678 21.7803 25.7753 21.9259C26 22.2623 26 22.7304 26 23.6667C26 24.603 26 25.0711 25.7753 25.4075C25.678 25.5531 25.553 25.678 25.4074 25.7754C25.071 26 24.6029 26 23.6666 26C22.7304 26 22.2622 26 21.9258 25.7754C21.7802 25.678 21.6553 25.5531 21.558 25.4075C21.3333 25.0711 21.3333 24.603 21.3333 23.6667Z" fill="#0073C9"/>
</svg>
