<svg width="32" height="32" viewBox="0 0 32 32" fill="none" xmlns="http://www.w3.org/2000/svg">
<path d="M12 15.3333C12 17.1743 10.5076 18.6667 8.66665 18.6667C6.8257 18.6667 5.33331 17.1743 5.33331 15.3333C5.33331 13.4924 6.8257 12 8.66665 12C10.5076 12 12 13.4924 12 15.3333Z" stroke="#0073C9" stroke-width="2"/>
<path opacity="0.5" d="M19.0941 22.4022L12 17.72" stroke="#0073C9" stroke-width="2" stroke-linecap="round"/>
<path opacity="0.5" d="M19.2276 9.11975L12.1335 13.802" stroke="#0073C9" stroke-width="2" stroke-linecap="round"/>
<path d="M25.3334 24.6667C25.3334 26.5076 23.841 28 22 28C20.1591 28 18.6667 26.5076 18.6667 24.6667C18.6667 22.8258 20.1591 21.3334 22 21.3334C23.841 21.3334 25.3334 22.8258 25.3334 24.6667Z" stroke="#0073C9" stroke-width="2"/>
<path d="M25.3334 7.33333C25.3334 9.17428 23.841 10.6667 22 10.6667C20.1591 10.6667 18.6667 9.17428 18.6667 7.33333C18.6667 5.49239 20.1591 4 22 4C23.841 4 25.3334 5.49239 25.3334 7.33333Z" stroke="#0073C9" stroke-width="2"/>
</svg>
