<svg width="106" height="18" viewBox="0 0 106 18" fill="none" xmlns="http://www.w3.org/2000/svg">
<path d="M6.05517 17.3746C4.74472 17.3746 3.59996 17.0659 2.62089 16.4483C1.65689 15.8157 0.994132 14.9646 0.63263 13.8952L2.84683 12.8333C3.16315 13.5261 3.59996 14.0684 4.15728 14.46C4.72966 14.8517 5.36229 15.0475 6.05517 15.0475C6.59742 15.0475 7.02671 14.927 7.34302 14.686C7.65934 14.445 7.8175 14.1286 7.8175 13.737C7.8175 13.496 7.74971 13.3002 7.61415 13.1496C7.49365 12.9839 7.32043 12.8483 7.09449 12.7429C6.88361 12.6224 6.65014 12.5245 6.39408 12.4492L4.38322 11.8843C3.3439 11.5831 2.55311 11.1237 2.01086 10.5061C1.48367 9.88852 1.22007 9.15799 1.22007 8.31448C1.22007 7.56135 1.40835 6.90613 1.78492 6.34881C2.17655 5.77643 2.71127 5.33208 3.38909 5.01577C4.08197 4.69945 4.87276 4.5413 5.76145 4.5413C6.92127 4.5413 7.94553 4.81995 8.83422 5.37727C9.72292 5.93459 10.3555 6.71784 10.7321 7.72704L8.47272 8.78895C8.26184 8.23164 7.90787 7.78729 7.41081 7.45591C6.91374 7.12453 6.35642 6.95884 5.73886 6.95884C5.24179 6.95884 4.85016 7.07181 4.56397 7.29775C4.27778 7.52369 4.13469 7.81741 4.13469 8.17892C4.13469 8.40486 4.19494 8.60067 4.31544 8.76636C4.43594 8.93205 4.60163 9.06761 4.81251 9.17305C5.03844 9.27849 5.29451 9.37639 5.5807 9.46677L7.54637 10.0542C8.55556 10.3555 9.33129 10.8073 9.87354 11.4098C10.4309 12.0124 10.7095 12.7504 10.7095 13.6241C10.7095 14.3621 10.5137 15.0173 10.1221 15.5897C9.73045 16.147 9.18819 16.5839 8.49531 16.9002C7.80243 17.2165 6.98905 17.3746 6.05517 17.3746ZM20.2533 17.3746C19.0483 17.3746 17.9488 17.096 16.9546 16.5387C15.9755 15.9814 15.1923 15.2207 14.6049 14.2567C14.0325 13.2927 13.7463 12.1931 13.7463 10.958C13.7463 9.72284 14.0325 8.62326 14.6049 7.65926C15.1923 6.69525 15.9755 5.93459 16.9546 5.37727C17.9337 4.81995 19.0333 4.5413 20.2533 4.5413C21.4583 4.5413 22.5504 4.81995 23.5295 5.37727C24.5085 5.93459 25.2842 6.69525 25.8566 7.65926C26.4441 8.6082 26.7378 9.70777 26.7378 10.958C26.7378 12.1931 26.4441 13.2927 25.8566 14.2567C25.2692 15.2207 24.4859 15.9814 23.5069 16.5387C22.5278 17.096 21.4433 17.3746 20.2533 17.3746ZM20.2533 14.6634C20.9161 14.6634 21.496 14.5052 21.9931 14.1889C22.5052 13.8726 22.9044 13.4358 23.1905 12.8785C23.4918 12.3061 23.6424 11.6659 23.6424 10.958C23.6424 10.235 23.4918 9.60233 23.1905 9.06008C22.9044 8.50276 22.5052 8.06595 21.9931 7.74963C21.496 7.41825 20.9161 7.25257 20.2533 7.25257C19.5755 7.25257 18.9805 7.41825 18.4684 7.74963C17.9563 8.06595 17.5496 8.50276 17.2483 9.06008C16.9622 9.60233 16.8191 10.235 16.8191 10.958C16.8191 11.6659 16.9622 12.3061 17.2483 12.8785C17.5496 13.4358 17.9563 13.8726 18.4684 14.1889C18.9805 14.5052 19.5755 14.6634 20.2533 14.6634ZM31.4003 17.1035V7.45591H29.2312V4.81242H31.4003V4.40573C31.4003 3.47185 31.5885 2.68106 31.9651 2.03337C32.3567 1.37062 32.899 0.866018 33.5919 0.519578C34.2847 0.173138 35.1057 -8.2286e-05 36.0546 -8.2286e-05C36.2354 -8.2286e-05 36.4312 0.0149801 36.642 0.045105C36.868 0.0601683 37.0563 0.0827624 37.2069 0.112887V2.666C37.0563 2.63587 36.9132 2.62081 36.7776 2.62081C36.6571 2.60575 36.5441 2.59822 36.4387 2.59822C35.7759 2.59822 35.2638 2.74884 34.9023 3.0501C34.5408 3.33629 34.3601 3.78816 34.3601 4.40573V4.81242H37.0939V7.45591H34.3601V17.1035H31.4003ZM46.5698 17.2391C45.184 17.2391 44.107 16.8625 43.3388 16.1094C42.5857 15.3412 42.2092 14.2642 42.2092 12.8785V7.45591H40.0853V4.81242H40.3113C40.9138 4.81242 41.3807 4.65427 41.7121 4.33795C42.0435 4.02164 42.2092 3.56223 42.2092 2.95972V2.01078H45.169V4.81242H47.9932V7.45591H45.169V12.7203C45.169 13.127 45.2367 13.4734 45.3723 13.7596C45.5229 14.0458 45.7489 14.2642 46.0501 14.4148C46.3664 14.5655 46.7656 14.6408 47.2476 14.6408C47.353 14.6408 47.4735 14.6332 47.6091 14.6182C47.7597 14.6031 47.9028 14.5881 48.0384 14.573V17.1035C47.8275 17.1336 47.5865 17.1638 47.3154 17.1939C47.0443 17.224 46.7957 17.2391 46.5698 17.2391ZM56.2359 17.3746C54.9255 17.3746 53.7807 17.0659 52.8016 16.4483C51.8376 15.8157 51.1749 14.9646 50.8134 13.8952L53.0276 12.8333C53.3439 13.5261 53.7807 14.0684 54.338 14.46C54.9104 14.8517 55.543 15.0475 56.2359 15.0475C56.7782 15.0475 57.2075 14.927 57.5238 14.686C57.8401 14.445 57.9982 14.1286 57.9982 13.737C57.9982 13.496 57.9305 13.3002 57.7949 13.1496C57.6744 12.9839 57.5012 12.8483 57.2752 12.7429C57.0644 12.6224 56.8309 12.5245 56.5748 12.4492L54.564 11.8843C53.5246 11.5831 52.7339 11.1237 52.1916 10.5061C51.6644 9.88852 51.4008 9.15799 51.4008 8.31448C51.4008 7.56135 51.5891 6.90613 51.9657 6.34881C52.3573 5.77643 52.892 5.33208 53.5698 5.01577C54.2627 4.69945 55.0535 4.5413 55.9422 4.5413C57.102 4.5413 58.1263 4.81995 59.015 5.37727C59.9037 5.93459 60.5363 6.71784 60.9129 7.72704L58.6535 8.78895C58.4426 8.23164 58.0886 7.78729 57.5916 7.45591C57.0945 7.12453 56.5372 6.95884 55.9196 6.95884C55.4225 6.95884 55.0309 7.07181 54.7447 7.29775C54.4585 7.52369 54.3154 7.81741 54.3154 8.17892C54.3154 8.40486 54.3757 8.60067 54.4962 8.76636C54.6167 8.93205 54.7824 9.06761 54.9933 9.17305C55.2192 9.27849 55.4753 9.37639 55.7614 9.46677L57.7271 10.0542C58.7363 10.3555 59.512 10.8073 60.0543 11.4098C60.6116 12.0124 60.8903 12.7504 60.8903 13.6241C60.8903 14.3621 60.6945 15.0173 60.3028 15.5897C59.9112 16.147 59.3689 16.5839 58.6761 16.9002C57.9832 17.2165 57.1698 17.3746 56.2359 17.3746ZM70.3437 17.3746C69.1236 17.3746 68.0241 17.096 67.045 16.5387C66.081 15.9663 65.3203 15.1981 64.763 14.2341C64.2057 13.255 63.927 12.1554 63.927 10.9354C63.927 9.7153 64.2057 8.62326 64.763 7.65926C65.3203 6.69525 66.081 5.93459 67.045 5.37727C68.0241 4.81995 69.1236 4.5413 70.3437 4.5413C71.2173 4.5413 72.0307 4.69945 72.7838 5.01577C73.537 5.31702 74.1847 5.73877 74.7269 6.28103C75.2842 6.80822 75.6834 7.44085 75.9244 8.17892L73.3261 9.30861C73.1002 8.69105 72.7161 8.19398 72.1738 7.81741C71.6466 7.44085 71.0366 7.25257 70.3437 7.25257C69.696 7.25257 69.1161 7.41072 68.604 7.72704C68.1069 8.04335 67.7153 8.48017 67.4291 9.03749C67.1429 9.5948 66.9998 10.235 66.9998 10.958C66.9998 11.681 67.1429 12.3211 67.4291 12.8785C67.7153 13.4358 68.1069 13.8726 68.604 14.1889C69.1161 14.5052 69.696 14.6634 70.3437 14.6634C71.0516 14.6634 71.6692 14.4751 72.1964 14.0985C72.7236 13.722 73.1002 13.2174 73.3261 12.5847L75.9244 13.7596C75.6834 14.4525 75.2918 15.0776 74.7495 15.6349C74.2073 16.1772 73.5596 16.6064 72.8064 16.9228C72.0533 17.224 71.2324 17.3746 70.3437 17.3746ZM83.1133 17.3746C82.2548 17.3746 81.5092 17.2315 80.8765 16.9454C80.2439 16.6592 79.7544 16.2525 79.4079 15.7253C79.0615 15.183 78.8883 14.5579 78.8883 13.85C78.8883 13.1722 79.0389 12.5697 79.3401 12.0425C79.6414 11.5002 80.1083 11.0483 80.741 10.6868C81.3736 10.3253 82.1719 10.0693 83.1359 9.91865L87.1576 9.26343V11.5228L83.7008 12.1103C83.1133 12.2157 82.6765 12.404 82.3903 12.6751C82.1041 12.9462 81.961 13.3002 81.961 13.737C81.961 14.1588 82.1192 14.4977 82.4355 14.7537C82.7669 14.9947 83.1736 15.1153 83.6556 15.1153C84.2732 15.1153 84.8154 14.9872 85.2823 14.7312C85.7643 14.46 86.1334 14.091 86.3894 13.6241C86.6606 13.1571 86.7961 12.645 86.7961 12.0877V8.92452C86.7961 8.39732 86.5853 7.96051 86.1635 7.61407C85.7568 7.25257 85.2146 7.07181 84.5367 7.07181C83.9041 7.07181 83.3393 7.24503 82.8422 7.59147C82.3602 7.92285 82.0062 8.3672 81.7803 8.92452L79.3627 7.74963C79.6037 7.10194 79.9803 6.54462 80.4924 6.07768C81.0196 5.59568 81.6372 5.21911 82.3451 4.94799C83.0531 4.67686 83.8213 4.5413 84.6497 4.5413C85.6589 4.5413 86.5476 4.72958 87.3158 5.10614C88.084 5.46765 88.679 5.97978 89.1007 6.64253C89.5375 7.29022 89.7559 8.05088 89.7559 8.92452V17.1035H86.9543V15.0023L87.5869 14.9571C87.2706 15.4843 86.894 15.9286 86.4572 16.2901C86.0204 16.6366 85.5233 16.9077 84.966 17.1035C84.4087 17.2843 83.7911 17.3746 83.1133 17.3746ZM93.7508 17.1035V4.81242H96.5299V7.22997L96.3039 6.80069C96.5901 6.06262 97.0571 5.5053 97.7048 5.12874C98.3675 4.73711 99.1357 4.5413 100.009 4.5413C100.913 4.5413 101.711 4.73711 102.404 5.12874C103.112 5.52037 103.662 6.07015 104.054 6.77809C104.445 7.47097 104.641 8.27682 104.641 9.19564V17.1035H101.681V9.89606C101.681 9.3538 101.576 8.88686 101.365 8.49523C101.154 8.1036 100.86 7.80235 100.484 7.59147C100.122 7.36554 99.693 7.25257 99.196 7.25257C98.714 7.25257 98.2847 7.36554 97.9081 7.59147C97.5315 7.80235 97.2378 8.1036 97.027 8.49523C96.8161 8.88686 96.7106 9.3538 96.7106 9.89606V17.1035H93.7508Z" fill="white"/>
</svg>
