<svg width="118" height="27" viewBox="0 0 118 27" fill="none" xmlns="http://www.w3.org/2000/svg">
<mask id="mask0_53_220" style="mask-type:alpha" maskUnits="userSpaceOnUse" x="0" y="0" width="27" height="27">
<circle cx="13.5" cy="13.5" r="13.5" fill="#C4C4C4"/>
</mask>
<g mask="url(#mask0_53_220)">
<circle opacity="0.4" cx="7.07714" cy="-2.39735" r="11.2004" transform="rotate(-22 7.07714 -2.39735)" fill="#0073C9"/>
<circle opacity="0.4" cx="19.9233" cy="29.3971" r="11.2004" transform="rotate(-22 19.9233 29.3971)" fill="#0073C9"/>
<circle cx="-2.39698" cy="19.923" r="11.2004" transform="rotate(-22 -2.39698 19.923)" fill="#0073C9"/>
<circle cx="29.103" cy="6.34875" r="11.2004" transform="rotate(-22 29.103 6.34875)" fill="#0073C9"/>
</g>
<path d="M38.8085 20.2153C37.7679 20.2153 36.8588 19.9701 36.0813 19.4797C35.3158 18.9773 34.7895 18.3015 34.5024 17.4522L36.2607 16.6089C36.5119 17.1591 36.8588 17.5898 37.3014 17.9008C37.7559 18.2118 38.2583 18.3673 38.8085 18.3673C39.2391 18.3673 39.58 18.2716 39.8312 18.0802C40.0824 17.8888 40.208 17.6376 40.208 17.3266C40.208 17.1352 40.1542 16.9797 40.0465 16.8601C39.9508 16.7285 39.8133 16.6209 39.6339 16.5371C39.4664 16.4415 39.281 16.3637 39.0777 16.3039L37.4808 15.8553C36.6555 15.6161 36.0275 15.2513 35.5969 14.7609C35.1782 14.2704 34.9689 13.6903 34.9689 13.0205C34.9689 12.4224 35.1184 11.9021 35.4174 11.4595C35.7284 11.005 36.1531 10.6521 36.6913 10.4009C37.2416 10.1497 37.8695 10.0241 38.5753 10.0241C39.4963 10.0241 40.3097 10.2454 41.0154 10.688C41.7211 11.1306 42.2235 11.7526 42.5226 12.554L40.7283 13.3973C40.5609 12.9547 40.2798 12.6018 39.8851 12.3387C39.4903 12.0755 39.0477 11.9439 38.5573 11.9439C38.1626 11.9439 37.8516 12.0336 37.6243 12.2131C37.3971 12.3925 37.2834 12.6257 37.2834 12.9128C37.2834 13.0922 37.3313 13.2477 37.427 13.3793C37.5227 13.5109 37.6542 13.6185 37.8217 13.7023C38.0011 13.786 38.2045 13.8638 38.4317 13.9355L39.9927 14.402C40.7941 14.6413 41.4101 15.0001 41.8408 15.4786C42.2833 15.957 42.5046 16.5431 42.5046 17.2369C42.5046 17.823 42.3491 18.3433 42.0381 18.7979C41.7271 19.2404 41.2965 19.5873 40.7463 19.8385C40.1961 20.0897 39.5501 20.2153 38.8085 20.2153ZM50.0835 20.2153C49.1266 20.2153 48.2534 19.994 47.464 19.5514C46.6865 19.1089 46.0645 18.5048 45.598 17.7393C45.1434 16.9737 44.9162 16.1006 44.9162 15.1197C44.9162 14.1389 45.1434 13.2657 45.598 12.5001C46.0645 11.7346 46.6865 11.1306 47.464 10.688C48.2415 10.2454 49.1146 10.0241 50.0835 10.0241C51.0404 10.0241 51.9077 10.2454 52.6852 10.688C53.4626 11.1306 54.0787 11.7346 54.5332 12.5001C54.9997 13.2537 55.2329 14.1269 55.2329 15.1197C55.2329 16.1006 54.9997 16.9737 54.5332 17.7393C54.0667 18.5048 53.4447 19.1089 52.6672 19.5514C51.8897 19.994 51.0285 20.2153 50.0835 20.2153ZM50.0835 18.0622C50.6098 18.0622 51.0704 17.9366 51.4651 17.6855C51.8718 17.4343 52.1888 17.0874 52.416 16.6448C52.6552 16.1903 52.7749 15.6819 52.7749 15.1197C52.7749 14.5456 52.6552 14.0432 52.416 13.6126C52.1888 13.17 51.8718 12.8231 51.4651 12.5719C51.0704 12.3088 50.6098 12.1772 50.0835 12.1772C49.5453 12.1772 49.0728 12.3088 48.6661 12.5719C48.2594 12.8231 47.9364 13.17 47.6972 13.6126C47.4699 14.0432 47.3563 14.5456 47.3563 15.1197C47.3563 15.6819 47.4699 16.1903 47.6972 16.6448C47.9364 17.0874 48.2594 17.4343 48.6661 17.6855C49.0728 17.9366 49.5453 18.0622 50.0835 18.0622ZM58.9355 20V12.3387H57.213V10.2394H58.9355V9.91647C58.9355 9.17485 59.085 8.54688 59.3841 8.03253C59.6951 7.50623 60.1257 7.10552 60.6759 6.8304C61.2261 6.55529 61.878 6.41773 62.6316 6.41773C62.7751 6.41773 62.9306 6.42969 63.0981 6.45362C63.2775 6.46558 63.427 6.48352 63.5467 6.50744V8.53491C63.427 8.51099 63.3134 8.49903 63.2057 8.49903C63.1101 8.48707 63.0203 8.48109 62.9366 8.48109C62.4103 8.48109 62.0036 8.6007 61.7165 8.83993C61.4295 9.0672 61.2859 9.42604 61.2859 9.91647V10.2394H63.4569V12.3387H61.2859V20H58.9355ZM70.9819 20.1077C69.8814 20.1077 69.0262 19.8086 68.4161 19.2105C67.8181 18.6005 67.519 17.7453 67.519 16.6448V12.3387H65.8325V10.2394H66.0119C66.4903 10.2394 66.8612 10.1138 67.1243 9.86264C67.3875 9.61145 67.519 9.24662 67.519 8.76816V8.01459H69.8695V10.2394H72.1122V12.3387H69.8695V16.5192C69.8695 16.8422 69.9233 17.1173 70.0309 17.3445C70.1506 17.5718 70.33 17.7453 70.5692 17.8649C70.8204 17.9845 71.1374 18.0443 71.5202 18.0443C71.6039 18.0443 71.6996 18.0383 71.8072 18.0264C71.9268 18.0144 72.0405 18.0024 72.1481 17.9905V20C71.9807 20.0239 71.7893 20.0478 71.574 20.0718C71.3587 20.0957 71.1613 20.1077 70.9819 20.1077ZM78.6579 20.2153C77.6173 20.2153 76.7082 19.9701 75.9307 19.4797C75.1652 18.9773 74.6389 18.3015 74.3518 17.4522L76.1101 16.6089C76.3613 17.1591 76.7082 17.5898 77.1508 17.9008C77.6053 18.2118 78.1077 18.3673 78.6579 18.3673C79.0886 18.3673 79.4295 18.2716 79.6806 18.0802C79.9318 17.8888 80.0574 17.6376 80.0574 17.3266C80.0574 17.1352 80.0036 16.9797 79.896 16.8601C79.8003 16.7285 79.6627 16.6209 79.4833 16.5371C79.3158 16.4415 79.1304 16.3637 78.9271 16.3039L77.3302 15.8553C76.5049 15.6161 75.8769 15.2513 75.4463 14.7609C75.0276 14.2704 74.8183 13.6903 74.8183 13.0205C74.8183 12.4224 74.9678 11.9021 75.2669 11.4595C75.5779 11.005 76.0025 10.6521 76.5408 10.4009C77.091 10.1497 77.719 10.0241 78.4247 10.0241C79.3457 10.0241 80.1591 10.2454 80.8648 10.688C81.5706 11.1306 82.0729 11.7526 82.372 12.554L80.5778 13.3973C80.4103 12.9547 80.1292 12.6018 79.7345 12.3387C79.3397 12.0755 78.8972 11.9439 78.4067 11.9439C78.012 11.9439 77.701 12.0336 77.4737 12.2131C77.2465 12.3925 77.1328 12.6257 77.1328 12.9128C77.1328 13.0922 77.1807 13.2477 77.2764 13.3793C77.3721 13.5109 77.5037 13.6185 77.6711 13.7023C77.8505 13.786 78.0539 13.8638 78.2811 13.9355L79.8421 14.402C80.6435 14.6413 81.2596 15.0001 81.6902 15.4786C82.1327 15.957 82.354 16.5431 82.354 17.2369C82.354 17.823 82.1985 18.3433 81.8875 18.7979C81.5765 19.2404 81.1459 19.5873 80.5957 19.8385C80.0455 20.0897 79.3995 20.2153 78.6579 20.2153ZM89.8612 20.2153C88.8923 20.2153 88.0191 19.994 87.2416 19.5514C86.4761 19.0969 85.872 18.4869 85.4294 17.7213C84.9869 16.9438 84.7656 16.0707 84.7656 15.1018C84.7656 14.1329 84.9869 13.2657 85.4294 12.5001C85.872 11.7346 86.4761 11.1306 87.2416 10.688C88.0191 10.2454 88.8923 10.0241 89.8612 10.0241C90.5549 10.0241 91.2009 10.1497 91.7989 10.4009C92.397 10.6401 92.9114 10.9751 93.342 11.4057C93.7845 11.8243 94.1015 12.3267 94.2929 12.9128L92.2296 13.8099C92.0501 13.3195 91.7451 12.9248 91.3145 12.6257C90.8958 12.3267 90.4114 12.1772 89.8612 12.1772C89.3468 12.1772 88.8863 12.3028 88.4796 12.554C88.0849 12.8052 87.7739 13.152 87.5466 13.5946C87.3194 14.0372 87.2057 14.5456 87.2057 15.1197C87.2057 15.6939 87.3194 16.2022 87.5466 16.6448C87.7739 17.0874 88.0849 17.4343 88.4796 17.6855C88.8863 17.9366 89.3468 18.0622 89.8612 18.0622C90.4234 18.0622 90.9138 17.9127 91.3324 17.6137C91.7511 17.3146 92.0501 16.9139 92.2296 16.4116L94.2929 17.3445C94.1015 17.8948 93.7905 18.3912 93.3599 18.8338C92.9293 19.2644 92.415 19.6053 91.8169 19.8565C91.2188 20.0957 90.5669 20.2153 89.8612 20.2153ZM100.002 20.2153C99.32 20.2153 98.7279 20.1017 98.2255 19.8744C97.7231 19.6471 97.3344 19.3242 97.0592 18.9055C96.7841 18.4749 96.6466 17.9785 96.6466 17.4163C96.6466 16.8781 96.7662 16.3996 97.0054 15.9809C97.2446 15.5503 97.6154 15.1915 98.1178 14.9044C98.6202 14.6173 99.2542 14.414 100.02 14.2944L103.213 13.774V15.5683L100.468 16.0348C100.002 16.1185 99.6549 16.268 99.4276 16.4833C99.2003 16.6986 99.0867 16.9797 99.0867 17.3266C99.0867 17.6615 99.2123 17.9307 99.4635 18.134C99.7266 18.3254 100.05 18.4211 100.432 18.4211C100.923 18.4211 101.353 18.3194 101.724 18.1161C102.107 17.9008 102.4 17.6077 102.603 17.2369C102.819 16.8661 102.926 16.4594 102.926 16.0168V13.5049C102.926 13.0863 102.759 12.7394 102.424 12.4643C102.101 12.1772 101.67 12.0336 101.132 12.0336C100.63 12.0336 100.181 12.1712 99.7865 12.4463C99.4037 12.7095 99.1226 13.0623 98.9432 13.5049L97.0234 12.5719C97.2147 12.0576 97.5138 11.615 97.9205 11.2442C98.3391 10.8614 98.8295 10.5624 99.3917 10.3471C99.9539 10.1318 100.564 10.0241 101.222 10.0241C102.023 10.0241 102.729 10.1736 103.339 10.4727C103.949 10.7598 104.422 11.1664 104.756 11.6927C105.103 12.2071 105.277 12.8111 105.277 13.5049V20H103.052V18.3314L103.554 18.2955C103.303 18.7141 103.004 19.067 102.657 19.3541C102.31 19.6292 101.916 19.8445 101.473 20C101.03 20.1435 100.54 20.2153 100.002 20.2153ZM108.449 20V10.2394H110.656V12.1592L110.477 11.8183C110.704 11.2322 111.075 10.7897 111.589 10.4906C112.115 10.1796 112.725 10.0241 113.419 10.0241C114.137 10.0241 114.771 10.1796 115.321 10.4906C115.883 10.8016 116.32 11.2382 116.631 11.8004C116.942 12.3506 117.097 12.9906 117.097 13.7202V20H114.747V14.2764C114.747 13.8458 114.663 13.475 114.496 13.164C114.328 12.853 114.095 12.6138 113.796 12.4463C113.509 12.2669 113.168 12.1772 112.773 12.1772C112.39 12.1772 112.05 12.2669 111.751 12.4463C111.452 12.6138 111.218 12.853 111.051 13.164C110.883 13.475 110.8 13.8458 110.8 14.2764V20H108.449Z" fill="#022743"/>
</svg>
